Coordinates
version=1
nRows=13
nColumns=63
inDegrees=yes

Units are S.I. units (second, meters, Newtons, ...)
If the header above contains a line with 'inDegrees', this indicates whether rotational values are in degrees (yes) or radians (no).

endheader
time	pelvis_tilt	pelvis_list	pelvis_rotation	pelvis_tx	pelvis_ty	pelvis_tz	hip_flexion_r	hip_adduction_r	hip_rotation_r	knee_angle_r	knee_angle_r_beta	ankle_angle_r	subtalar_angle_r	mtp_angle_r	hip_flexion_l	hip_adduction_l	hip_rotation_l	knee_angle_l	knee_angle_l_beta	ankle_angle_l	subtalar_angle_l	mtp_angle_l	L5_S1_Flex_Ext	L5_S1_Lat_Bending	L5_S1_axial_rotation	L4_L5_Flex_Ext	L4_L5_Lat_Bending	L4_L5_axial_rotation	L3_L4_Flex_Ext	L3_L4_Lat_Bending	L3_L4_axial_rotation	L2_L3_Flex_Ext	L2_L3_Lat_Bending	L2_L3_axial_rotation	L1_L2_Flex_Ext	L1_L2_Lat_Bending	L1_L2_axial_rotation	L1_T12_Flex_Ext	L1_T12_Lat_Bending	L1_T12_axial_rotation	Abs_r3	Abs_r2	Abs_r1	Abs_t1	Abs_t2	neck_flexion	neck_bending	neck_rotation	arm_flex_r	arm_add_r	arm_rot_r	elbow_flex_r	pro_sup_r	wrist_flex_r	wrist_dev_r	arm_flex_l	arm_add_l	arm_rot_l	elbow_flex_l	pro_sup_l	wrist_flex_l	wrist_dev_l
8.750000	7.271436	-14.180090	109.364758	0.227900	0.847303	0.893231	20.186419	1.839793	-3.798387	22.351417	0.390106	30.176398	-11.323856	0.000000	20.717672	-2.621689	3.942634	20.707010	0.361405	36.794331	6.564772	0.000000	-0.329954	1.116366	-1.043955	-0.612758	1.484767	-1.109203	-0.542082	2.714332	-1.109203	-0.377105	2.714332	-0.913461	-0.306395	2.276494	-0.848214	-0.188536	1.729251	-0.782967	-2.356830	12.628556	-5.806167	0.000000	0.000000	18.130993	-7.151473	-3.822446	0.021785	-21.757679	35.494312	41.175102	88.911297	-14.154847	7.660601	4.953749	-9.651786	41.006847	40.181316	87.894262	-11.844600	7.383636
8.766667	7.552916	-14.250319	109.661476	0.227008	0.846876	0.893008	20.288018	1.957523	-4.161025	22.323324	0.389616	30.197352	-11.194661	0.000000	20.951237	-2.725924	4.373839	20.847613	0.363859	36.887733	6.366710	0.000000	-0.323235	1.151350	-1.141040	-0.600280	1.531295	-1.212355	-0.531043	2.799391	-1.212355	-0.369425	2.799391	-0.998410	-0.300156	2.347832	-0.927095	-0.184696	1.783440	-0.855780	-2.308835	13.024296	-6.346121	0.000000	0.000000	18.286262	-6.880992	-3.946973	0.238612	-21.913362	35.739581	41.168816	88.900537	-13.859582	7.928028	5.280495	-9.452621	41.967849	39.257519	87.892942	-12.309314	6.357179
8.783333	7.793772	-14.345778	109.882705	0.226363	0.846405	0.892844	20.427809	2.071644	-4.382229	22.321484	0.389583	30.211639	-11.160872	0.000000	21.213864	-2.821517	4.681145	21.012333	0.366734	37.001106	6.224377	0.000000	-0.316433	1.177511	-1.223526	-0.587648	1.566090	-1.299996	-0.519868	2.863001	-1.299996	-0.361652	2.863001	-1.070585	-0.293840	2.401181	-0.994115	-0.180810	1.823965	-0.917644	-2.260251	13.320242	-6.804883	0.000000	0.000000	18.444476	-6.580748	-4.142313	0.459465	-22.002391	35.926437	41.135576	88.885468	-13.551753	8.136829	5.533455	-9.327873	42.779850	38.502651	87.901093	-12.791023	5.361096
8.800000	7.993691	-14.464501	110.032118	0.225919	0.845932	0.892716	20.592969	2.165433	-4.548598	22.334030	0.389802	30.240391	-11.091052	0.000000	21.486551	-2.910740	4.851177	21.180850	0.369676	37.122710	6.159534	0.000000	-0.307660	1.195018	-1.293272	-0.571355	1.589374	-1.374101	-0.505454	2.905568	-1.374101	-0.351624	2.905568	-1.131613	-0.285693	2.436881	-1.050783	-0.175797	1.851083	-0.969954	-2.197583	13.518287	-7.192790	0.000000	0.000000	18.598379	-6.242473	-4.403294	0.702469	-22.039747	36.137267	41.057762	88.862678	-13.223085	8.290125	5.690776	-9.276520	43.389003	37.958893	87.922758	-13.194583	4.515436
8.816667	8.168938	-14.589537	110.127194	0.225614	0.845487	0.892607	20.763216	2.255366	-4.657410	22.343461	0.389967	30.266323	-11.020265	0.000000	21.758591	-3.002096	4.927255	21.360538	0.372812	37.255878	6.149014	0.000000	-0.297072	1.206607	-1.352360	-0.551692	1.604788	-1.436882	-0.488060	2.933745	-1.436882	-0.339524	2.933745	-1.183315	-0.275861	2.460514	-1.098792	-0.169747	1.869035	-1.014270	-2.121956	13.649385	-7.521419	0.000000	0.000000	18.771971	-5.840353	-4.714173	0.944657	-22.041165	36.359526	40.949836	88.834112	-12.929473	8.335317	5.720385	-9.273836	43.704436	37.667387	87.956905	-13.538712	3.867205
8.833333	8.315359	-14.703218	110.159801	0.225416	0.845113	0.892489	20.912982	2.343348	-4.708919	22.339438	0.389897	30.284615	-10.939251	0.000000	21.998072	-3.096978	4.915722	21.534387	0.375846	37.378422	6.176576	0.000000	-0.285720	1.212944	-1.398273	-0.530610	1.613215	-1.485665	-0.469409	2.949151	-1.485665	-0.326549	2.949151	-1.223489	-0.265319	2.473435	-1.136097	-0.163260	1.878850	-1.048705	-2.040867	13.721062	-7.776775	0.000000	0.000000	18.964865	-5.382409	-5.100664	1.185218	-22.020679	36.622897	40.810185	88.801563	-12.676144	8.284924	5.630151	-9.318084	43.745136	37.639146	87.982484	-13.835218	3.438045
8.850000	8.452805	-14.795855	110.165193	0.225226	0.844815	0.892356	21.032273	2.436368	-4.741773	22.315529	0.389479	30.290730	-10.854025	0.000000	22.207126	-3.196979	4.885786	21.710913	0.378927	37.480314	6.197886	0.000000	-0.272605	1.217774	-1.434289	-0.506255	1.619639	-1.523932	-0.447863	2.960895	-1.523932	-0.311560	2.960895	-1.255003	-0.253141	2.483284	-1.165360	-0.155766	1.886331	-1.075717	-1.947190	13.775698	-7.977087	0.000000	0.000000	19.187780	-4.881267	-5.557097	1.393116	-22.001829	36.901946	40.659801	88.769979	-12.509380	8.108451	5.415157	-9.376903	43.490247	37.863200	87.992284	-14.097122	3.216135
8.866667	8.576447	-14.851739	110.142826	0.225026	0.844610	0.892208	21.102485	2.532270	-4.767440	22.271121	0.388704	30.286777	-10.752385	0.000000	22.369495	-3.303260	4.830442	21.891161	0.382073	37.565018	6.229162	0.000000	-0.260441	1.221807	-1.462055	-0.483666	1.625003	-1.553433	-0.427879	2.970701	-1.553433	-0.297659	2.970701	-1.279298	-0.241846	2.491509	-1.187919	-0.148816	1.892579	-1.096541	-1.860307	13.821323	-8.131509	0.000000	0.000000	19.426062	-4.328776	-6.050895	1.582633	-22.000208	37.247253	40.504142	88.740651	-12.461414	7.810139	5.085576	-9.439115	42.932598	38.307769	87.988496	-14.268917	3.178947
8.883333	8.696310	-14.874993	110.111607	0.224775	0.844472	0.892043	21.129692	2.633447	-4.798234	22.208036	0.387603	30.268760	-10.656689	0.000000	22.496203	-3.413143	4.780009	22.076282	0.385304	37.638261	6.248864	0.000000	-0.248294	1.226472	-1.484761	-0.461106	1.631208	-1.577559	-0.407922	2.982044	-1.577559	-0.283775	2.982044	-1.299166	-0.230566	2.501022	-1.206369	-0.141875	1.899805	-1.113571	-1.773538	13.874099	-8.257797	0.000000	0.000000	19.650821	-3.722233	-6.547957	1.739631	-22.023449	37.641691	40.354761	88.715689	-12.551147	7.381674	4.655440	-9.489593	42.108913	38.917323	87.971042	-14.338062	3.271059
8.900000	8.816319	-14.876004	110.079612	0.224477	0.844351	0.891865	21.128602	2.740077	-4.829090	22.137452	0.386371	30.246144	-10.576283	0.000000	22.612413	-3.522186	4.757971	22.291858	0.389066	37.717499	6.232756	0.000000	-0.235065	1.231050	-1.500280	-0.436539	1.637297	-1.594047	-0.386188	2.993175	-1.594047	-0.268656	2.993175	-1.312745	-0.218281	2.510357	-1.218977	-0.134316	1.906897	-1.125210	-1.679045	13.925886	-8.344106	0.000000	0.000000	19.822742	-3.081957	-7.095385	1.819546	-22.047776	37.942235	40.235923	88.696416	-12.688998	6.880017	4.164786	-9.539748	41.140751	39.623535	87.957826	-14.293867	3.400814
8.916667	8.950522	-14.854135	110.092508	0.224074	0.844248	0.891744	21.100992	2.852396	-4.893956	22.047610	0.384803	30.202540	-10.542085	0.000000	22.723403	-3.627451	4.794312	22.511240	0.392895	37.796394	6.190848	0.000000	-0.223534	1.238062	-1.525368	-0.415124	1.646623	-1.620703	-0.367243	3.010225	-1.620703	-0.255477	3.010225	-1.334697	-0.207573	2.524657	-1.239361	-0.127727	1.917758	-1.144026	-1.596678	14.005208	-8.483637	0.000000	0.000000	19.978658	-2.380416	-7.525409	1.912455	-22.107414	38.346557	40.133342	88.682184	-12.926038	6.317790	3.629702	-9.561790	40.034316	40.353786	87.941639	-14.159857	3.548983
8.933333	9.081408	-14.826166	110.105160	0.223637	0.844111	0.891643	21.067333	2.959405	-4.966931	21.962910	0.383325	30.174920	-10.499809	0.000000	22.840450	-3.719613	4.877083	22.754060	0.397133	37.889954	6.079456	0.000000	-0.212568	1.243401	-1.543754	-0.394760	1.653723	-1.640238	-0.349228	3.023205	-1.640238	-0.242944	3.023205	-1.350785	-0.197390	2.535543	-1.254300	-0.121461	1.926028	-1.157815	-1.518350	14.065600	-8.585896	0.000000	0.000000	20.085887	-1.671569	-7.977508	1.932628	-22.146092	38.592871	40.071728	88.675731	-13.146459	5.729433	3.110643	-9.587401	38.989242	41.046880	87.937144	-13.960409	3.669149
8.950000	9.220966	-14.776824	110.139374	0.223161	0.843953	0.891597	21.015860	3.073677	-5.060882	21.874297	0.381778	30.168457	-10.452913	0.000000	22.960510	-3.804124	5.048506	23.024342	0.401851	37.997919	5.870118	0.000000	-0.205692	1.248540	-1.559383	-0.381990	1.660558	-1.656845	-0.337931	3.035700	-1.656845	-0.235085	3.035700	-1.364460	-0.191005	2.546023	-1.266999	-0.117532	1.933989	-1.169537	-1.469235	14.123736	-8.672822	0.000000	0.000000	20.126298	-0.956785	-8.419690	1.891074	-22.155571	38.643255	40.053433	88.676769	-13.350344	5.132049	2.634293	-9.608591	38.060719	41.656409	87.950126	-13.756728	3.714419
